<svg xmlns="http://www.w3.org/2000/svg" viewBox="0 0 478 841.89"><defs><style>.cls-1{fill:#fff;}.cls-11,.cls-2,.cls-3,.cls-4,.cls-5{fill:none;}.cls-11,.cls-12,.cls-2,.cls-3,.cls-4,.cls-5{stroke:#231f20;}.cls-11,.cls-12,.cls-2{stroke-miterlimit:10;}.cls-2,.cls-3,.cls-4,.cls-5{stroke-width:2px;}.cls-3,.cls-4,.cls-5{stroke-linecap:round;stroke-linejoin:round;}.cls-4{stroke-dasharray:0 4.99;}.cls-5{stroke-dasharray:0 4.91;}.cls-6{font-size:12px;font-family:MyriadPro-Regular, Myriad Pro;}.cls-12,.cls-6{fill:#231f20;}.cls-7{letter-spacing:-0.01em;}.cls-8{letter-spacing:0em;}.cls-9{letter-spacing:0.01em;}.cls-10{letter-spacing:-0.07em;}.cls-13{letter-spacing:-0.08em;}</style></defs><g id="Layer_2" data-name="Layer 2"><g id="Layer_1-2" data-name="Layer 1"><rect class="cls-1" width="478" height="841.89"/><line class="cls-2" x1="436" y1="495" x2="436" y2="310"/><polyline class="cls-2" points="436 271 436 31 36 31 36 803 436 803 436 542"/><line class="cls-3" x1="210" y1="85" x2="210" y2="85"/><line class="cls-4" x1="210" y1="89.99" x2="210" y2="741.5"/><line class="cls-3" x1="210" y1="744" x2="210" y2="744"/><line class="cls-5" x1="214.91" y1="744" x2="261.55" y2="744"/><line class="cls-3" x1="264" y1="744" x2="264" y2="744"/><line class="cls-4" x1="264" y1="739.01" x2="264" y2="87.5"/><line class="cls-3" x1="264" y1="85" x2="264" y2="85"/><line class="cls-5" x1="259.09" y1="85" x2="212.45" y2="85"/><text class="cls-6" transform="translate(21.51 450.49) rotate(-90.3)">VIA <tspan class="cls-7" x="19.45" y="0">D</tspan><tspan class="cls-8" x="27.28" y="0">ARSENA OESTE</tspan></text><text class="cls-6" transform="matrix(0, -1, 1, 0, 417.97, 537.04)">PUE<tspan class="cls-9" x="20.05" y="0">R</tspan><tspan class="cls-10" x="26.62" y="0">T</tspan><tspan x="31.68" y="0">A</tspan></text><text class="cls-6" transform="matrix(0, -1, 1, 0, 417.97, 310)">PUE<tspan class="cls-9" x="20.05" y="0">R</tspan><tspan class="cls-10" x="26.62" y="0">T</tspan><tspan x="31.68" y="0">A</tspan></text><text class="cls-6" transform="translate(39.12 18.28)">BODEGA 03</text><polygon class="cls-11" points="18.66 27.43 5.47 57.37 18.66 44.89 18.66 27.43"/><polygon class="cls-12" points="18.92 27.43 32.11 57.37 18.92 44.89 18.92 27.43"/><text class="cls-6" transform="translate(14.73 65.32)">N</text><text class="cls-6" transform="translate(461.08 451.49) rotate(-90.91)">VIA PRINCI<tspan class="cls-13" x="52.88" y="0">P</tspan><tspan x="58.26" y="0">AL ESTE</tspan></text></g></g></svg>