<svg xmlns="http://www.w3.org/2000/svg" viewBox="0 0 478 841.89"><defs><style>.cls-1{fill:#fff;}.cls-2,.cls-8{fill:none;}.cls-2,.cls-8,.cls-9{stroke:#231f20;stroke-miterlimit:10;}.cls-2{stroke-width:2px;}.cls-3{font-size:12px;font-family:MyriadPro-Regular, Myriad Pro;}.cls-3,.cls-9{fill:#231f20;}.cls-4{letter-spacing:-0.08em;}.cls-5{letter-spacing:0.01em;}.cls-6{letter-spacing:-0.08em;}.cls-7{letter-spacing:0em;}</style></defs><g id="Layer_2" data-name="Layer 2"><g id="Layer_1-2" data-name="Layer 1"><rect class="cls-1" width="478" height="841.89"/><polyline class="cls-2" points="202.68 29.89 34.92 29.89 34.92 811.81 202.68 811.81"/><polyline class="cls-2" points="263.16 811.81 435.96 811.81 435.96 29.89 263.16 29.89"/><text class="cls-3" transform="matrix(0, -1, 1, 0, 20.03, 435.29)">VIA PRINCI<tspan class="cls-4" x="52.88" y="0">P</tspan><tspan x="58.26" y="0">AL OESTE</tspan></text><text class="cls-3" transform="matrix(0, -1, 1, 0, 455.17, 435.29)">VIA MUELLE ESTE</text><text class="cls-3" transform="translate(212.32 804.89)">PUE<tspan class="cls-5" x="20.05" y="0">R</tspan><tspan class="cls-6" x="26.62" y="0">T</tspan><tspan class="cls-7" x="31.68" y="0">A</tspan></text><text class="cls-3" transform="translate(212.9 42.13)">PUE<tspan class="cls-5" x="20.05" y="0">R</tspan><tspan class="cls-6" x="26.62" y="0">T</tspan><tspan class="cls-7" x="31.68" y="0">A</tspan></text><polygon class="cls-8" points="16.56 19.85 3.37 49.79 16.56 37.31 16.56 19.85"/><polygon class="cls-9" points="16.81 19.85 30 49.79 16.81 37.31 16.81 19.85"/><text class="cls-3" transform="translate(12.63 57.74)">N</text><text class="cls-3" transform="translate(34.92 19.85)">BODEGA 04</text></g></g></svg>