<svg xmlns="http://www.w3.org/2000/svg" viewBox="0 0 478 841.89"><defs><style>.cls-1{fill:#fff;}.cls-2{font-size:12px;font-family:MyriadPro-Regular, Myriad Pro;}.cls-2,.cls-4{fill:#231f20;}.cls-3,.cls-5{fill:none;}.cls-3,.cls-4,.cls-5{stroke:#231f20;stroke-miterlimit:10;}.cls-5{stroke-width:2px;}.cls-6{letter-spacing:-0.08em;}.cls-7{letter-spacing:0.01em;}.cls-8{letter-spacing:-0.08em;}.cls-9{letter-spacing:0em;}</style></defs><g id="Layer_2" data-name="Layer 2"><g id="Layer_1-2" data-name="Layer 1"><rect class="cls-1" width="478" height="841.89"/><text class="cls-2" transform="translate(39.33 21.88)">BODEGA 06</text><polygon class="cls-3" points="18.88 31.03 5.69 60.97 18.88 48.5 18.88 31.03"/><polygon class="cls-4" points="19.13 31.03 32.32 60.97 19.13 48.5 19.13 31.03"/><text class="cls-2" transform="translate(14.95 68.92)">N</text><polyline class="cls-5" points="202.72 34.94 36 34.94 35.91 803.77 202.72 803.77"/><polyline class="cls-5" points="258.33 803.77 434.76 803.77 434.76 34.94 258.33 34.94"/><text class="cls-2" transform="matrix(-0.02, -1, 1, -0.02, 23.51, 453.14)">VIA PRINCI<tspan class="cls-6" x="52.88" y="0">P</tspan><tspan x="58.26" y="0">AL OESTE</tspan></text><text class="cls-2" transform="translate(212.9 806.15)">PUE<tspan class="cls-7" x="20.05" y="0">R</tspan><tspan class="cls-8" x="26.62" y="0">T</tspan><tspan class="cls-9" x="31.68" y="0">A</tspan></text><text class="cls-2" transform="translate(211.9 38.94)">PUE<tspan class="cls-7" x="20.05" y="0">R</tspan><tspan class="cls-8" x="26.62" y="0">T</tspan><tspan class="cls-9" x="31.68" y="0">A</tspan></text><text class="cls-2" transform="matrix(0, -1, 1, 0, 459.81, 447.16)">BODEGA 6A ESTE</text></g></g></svg>