<svg xmlns="http://www.w3.org/2000/svg" viewBox="0 0 478 841.89"><defs><style>.cls-1{fill:#fff;}.cls-12,.cls-13,.cls-14,.cls-15,.cls-2,.cls-7{fill:none;}.cls-12,.cls-13,.cls-14,.cls-15,.cls-2,.cls-7,.cls-8{stroke:#231f20;stroke-miterlimit:10;}.cls-12,.cls-13,.cls-14,.cls-15,.cls-2{stroke-width:2px;}.cls-3{font-size:12px;font-family:MyriadPro-Regular, Myriad Pro;}.cls-3,.cls-8{fill:#231f20;}.cls-4{letter-spacing:0.01em;}.cls-5{letter-spacing:-0.08em;}.cls-6{letter-spacing:0em;}.cls-9{letter-spacing:0.01em;}.cls-10{letter-spacing:-0.07em;}.cls-11{letter-spacing:0em;}.cls-12,.cls-13,.cls-14,.cls-15{stroke-linecap:round;}.cls-13{stroke-dasharray:0 5.01;}.cls-14{stroke-dasharray:0 4.86;}.cls-15{stroke-dasharray:0 5;}.cls-16{letter-spacing:-0.08em;}</style></defs><g id="Layer_2" data-name="Layer 2"><g id="Layer_1-2" data-name="Layer 1"><rect class="cls-1" width="478" height="841.89"/><line class="cls-2" x1="36.39" y1="277.09" x2="36.39" y2="526.64"/><polyline class="cls-2" points="36.39 572.63 36.39 806.93 105.89 806.93"/><line class="cls-2" x1="159.36" y1="806.93" x2="297.3" y2="806.93"/><polyline class="cls-2" points="350.76 806.93 435.24 806.93 435.24 29.9 36.39 29.9 36.39 235.39"/><text class="cls-3" transform="translate(50.47 568.67) rotate(-90.72)">PUE<tspan class="cls-4" x="20.05" y="0">R</tspan><tspan class="cls-5" x="26.62" y="0">T</tspan><tspan class="cls-6" x="31.68" y="0">A</tspan></text><text class="cls-3" transform="translate(49.47 276.09) rotate(-90.72)">PUE<tspan class="cls-4" x="20.05" y="0">R</tspan><tspan class="cls-5" x="26.62" y="0">T</tspan><tspan class="cls-6" x="31.68" y="0">A</tspan></text><text class="cls-3" transform="matrix(-0.02, -1, 1, -0.02, 459.69, 453.62)">VIA MUELLE ESTE</text><text class="cls-3" transform="translate(38.81 21.85)">BODEGA 07</text><polygon class="cls-7" points="18.35 30.99 5.17 60.93 18.35 48.46 18.35 30.99"/><polygon class="cls-8" points="18.61 30.99 31.8 60.93 18.61 48.46 18.61 30.99"/><text class="cls-3" transform="translate(14.42 68.88)">N</text><text class="cls-3" transform="translate(112.89 799.8)">PUE<tspan class="cls-9" x="20.05" y="0">R</tspan><tspan class="cls-10" x="26.62" y="0">T</tspan><tspan class="cls-11" x="31.68" y="0">A</tspan></text><text class="cls-3" transform="translate(302.64 799.8)">PUE<tspan class="cls-9" x="20.05" y="0">R</tspan><tspan class="cls-10" x="26.62" y="0">T</tspan><tspan class="cls-11" x="31.68" y="0">A</tspan></text><line class="cls-12" x1="105.89" y1="78.38" x2="105.89" y2="78.38"/><line class="cls-13" x1="105.89" y1="83.38" x2="105.89" y2="741.7"/><line class="cls-12" x1="105.89" y1="744.2" x2="105.89" y2="744.2"/><line class="cls-14" x1="110.75" y1="744.2" x2="156.93" y2="744.2"/><line class="cls-12" x1="159.36" y1="744.2" x2="159.36" y2="744.2"/><line class="cls-13" x1="159.36" y1="739.19" x2="159.36" y2="80.88"/><line class="cls-12" x1="159.36" y1="78.38" x2="159.36" y2="78.38"/><line class="cls-14" x1="154.5" y1="78.38" x2="108.32" y2="78.38"/><rect class="cls-15" x="203.2" y="78.38" width="55.6" height="665.82"/><rect class="cls-15" x="297.3" y="78.38" width="53.47" height="665.82"/><text class="cls-3" transform="translate(21.99 464.62) rotate(-89.28)">VIA PRINCI<tspan class="cls-16" x="52.88" y="0">P</tspan><tspan x="58.26" y="0">AL OESTE</tspan></text></g></g></svg>