<svg xmlns="http://www.w3.org/2000/svg" viewBox="0 0 478 841.89"><defs><style>.cls-1{fill:#fff;}.cls-2{font-size:12px;font-family:MyriadPro-Regular, Myriad Pro;}.cls-2,.cls-4{fill:#231f20;}.cls-10,.cls-3,.cls-5,.cls-6,.cls-7,.cls-8,.cls-9{fill:none;}.cls-10,.cls-3,.cls-4,.cls-5,.cls-6,.cls-7,.cls-8,.cls-9{stroke:#231f20;}.cls-3,.cls-4,.cls-5{stroke-miterlimit:10;}.cls-10,.cls-5,.cls-6,.cls-7,.cls-8,.cls-9{stroke-width:2px;}.cls-10,.cls-6,.cls-7,.cls-8,.cls-9{stroke-linecap:round;stroke-linejoin:round;}.cls-7{stroke-dasharray:0 4.99;}.cls-8{stroke-dasharray:0 5.05;}.cls-9{stroke-dasharray:0 5.01;}.cls-10{stroke-dasharray:0 5.06;}.cls-11{letter-spacing:0.01em;}.cls-12{letter-spacing:-0.07em;}.cls-13{letter-spacing:0em;}</style></defs><g id="Layer_2" data-name="Layer 2"><g id="Layer_1-2" data-name="Layer 1"><rect class="cls-1" width="478" height="841.89"/><text class="cls-2" transform="translate(38.55 20.9)">BODEGA 6A</text><polygon class="cls-3" points="18.09 30.05 4.91 59.99 18.09 47.51 18.09 30.05"/><polygon class="cls-4" points="18.35 30.05 31.54 59.99 18.35 47.51 18.35 30.05"/><text class="cls-2" transform="translate(14.16 67.94)">N</text><polyline class="cls-5" points="82.96 28.27 35.91 28.27 35.91 809.93 82.96 809.93"/><polyline class="cls-5" points="128.94 809.93 434.76 809.93 434.76 28.27 202.72 28.27 128.94 28.27"/><line class="cls-6" x1="202.72" y1="65.94" x2="202.72" y2="65.94"/><line class="cls-7" x1="202.72" y1="70.93" x2="202.72" y2="761.46"/><line class="cls-6" x1="202.72" y1="763.95" x2="202.72" y2="763.95"/><line class="cls-8" x1="207.78" y1="763.95" x2="255.8" y2="763.95"/><line class="cls-6" x1="258.33" y1="763.95" x2="258.33" y2="763.95"/><line class="cls-9" x1="258.33" y1="758.94" x2="258.33" y2="70.44"/><line class="cls-6" x1="258.33" y1="67.94" x2="258.33" y2="67.94"/><line class="cls-10" x1="253.27" y1="67.76" x2="205.25" y2="66.03"/><text class="cls-2" transform="translate(21.51 447.75) rotate(-89.08)">BODEGA 06 OESTE</text><text class="cls-2" transform="translate(459.21 451.82) rotate(-89.19)">VIA MUELLE ESTE</text><text class="cls-2" transform="translate(88.45 42.17)">PUE<tspan class="cls-11" x="20.05" y="0">R</tspan><tspan class="cls-12" x="26.62" y="0">T</tspan><tspan class="cls-13" x="31.68" y="0">A</tspan></text><text class="cls-2" transform="translate(87.45 805.51)">PUE<tspan class="cls-11" x="20.05" y="0">R</tspan><tspan class="cls-12" x="26.62" y="0">T</tspan><tspan class="cls-13" x="31.68" y="0">A</tspan></text></g></g></svg>