<svg xmlns="http://www.w3.org/2000/svg" viewBox="0 0 478 841.89"><defs><style>.cls-1{fill:#fff;}.cls-2{font-size:12px;font-family:MyriadPro-Regular, Myriad Pro;}.cls-2,.cls-4{fill:#231f20;}.cls-14,.cls-3,.cls-5{fill:none;}.cls-14,.cls-3,.cls-4,.cls-5{stroke:#231f20;stroke-miterlimit:10;}.cls-14,.cls-5{stroke-width:2px;}.cls-6{letter-spacing:0.01em;}.cls-7{letter-spacing:-0.07em;}.cls-8{letter-spacing:0em;}.cls-9{letter-spacing:0.01em;}.cls-10{letter-spacing:-0.08em;}.cls-11{letter-spacing:0em;}.cls-12{letter-spacing:-0.04em;}.cls-13{letter-spacing:-0.08em;}.cls-14{stroke-linecap:round;stroke-dasharray:0 5;}</style></defs><g id="Layer_2" data-name="Layer 2"><g id="Layer_1-2" data-name="Layer 1"><rect class="cls-1" width="478" height="841.89"/><text class="cls-2" transform="translate(37.77 25.45)">BODEGA 7A</text><polygon class="cls-3" points="17.32 34.6 4.13 64.54 17.32 52.06 17.32 34.6"/><polygon class="cls-4" points="17.57 34.6 30.76 64.54 17.57 52.06 17.57 34.6"/><text class="cls-2" transform="translate(13.38 72.49)">N</text><polyline class="cls-5" points="78.33 38.46 34.13 38.46 34.13 804.08 78.33 804.08"/><polyline class="cls-5" points="153.89 804.08 433.34 804.08 433.34 38.46 153.89 38.46"/><text class="cls-2" transform="translate(95.84 48.44)">PUE<tspan class="cls-6" x="20.05" y="0">R</tspan><tspan class="cls-7" x="26.62" y="0">T</tspan><tspan class="cls-8" x="31.68" y="0">A </tspan><tspan x="0" y="14.4">MUELLE</tspan></text><text class="cls-2" transform="translate(88.69 790.54)">PUE<tspan class="cls-9" x="20.05" y="0">R</tspan><tspan class="cls-10" x="26.62" y="0">T</tspan><tspan class="cls-11" x="31.68" y="0">A</tspan><tspan class="cls-12" x="39.02" y="0"> </tspan><tspan class="cls-11" x="41.14" y="0">VIA </tspan><tspan x="0" y="14.4">PRINCI</tspan><tspan class="cls-13" x="33.43" y="14.4">P</tspan><tspan x="38.81" y="14.4">AL</tspan></text><rect class="cls-14" x="200.94" y="94.06" width="55.6" height="643.01"/><text class="cls-2" transform="translate(459.21 443.53) rotate(-89.98)">BODEGA 07 NO<tspan class="cls-6" x="77.33" y="0">R</tspan><tspan x="83.89" y="0">TE</tspan></text><text class="cls-2" transform="translate(21.51 443.53) rotate(-89.33)">BODEGA 06 SUR</text></g></g></svg>