<svg xmlns="http://www.w3.org/2000/svg" viewBox="0 0 478 841.89"><defs><style>.cls-1{fill:#fff;}.cls-2{fill:none;stroke:#231f20;stroke-miterlimit:10;stroke-width:2px;}.cls-3{font-size:12px;fill:#231f20;font-family:MyriadPro-Regular, Myriad Pro;}.cls-4{letter-spacing:0.01em;}.cls-5{letter-spacing:-0.07em;}.cls-6{letter-spacing:0em;}</style></defs><g id="Layer_2" data-name="Layer 2"><g id="Layer_1-2" data-name="Layer 1"><rect class="cls-1" width="478" height="841.89"/><polyline class="cls-2" points="41.72 780.38 41.72 805.3 436.28 804.87 436.28 729.99"/><polyline class="cls-2" points="436.28 668.07 436.28 35.91 397.4 35.91"/><polyline class="cls-2" points="342.68 35.91 41.72 35.91 41.72 721.35"/><text class="cls-3" transform="matrix(0.01, -1, 1, 0.01, 53.79, 767.65)">PUE<tspan class="cls-4" x="20.05" y="0">R</tspan><tspan class="cls-5" x="26.62" y="0">T</tspan><tspan x="31.68" y="0">A</tspan></text><text class="cls-3" transform="matrix(-0.02, -1, 1, -0.02, 430.41, 716.13)">PUE<tspan class="cls-4" x="20.05" y="0">R</tspan><tspan class="cls-5" x="26.62" y="0">T</tspan><tspan x="31.68" y="0">A</tspan></text><text class="cls-3" transform="translate(341.68 53.14)">PUE<tspan class="cls-4" x="20.05" y="0">R</tspan><tspan class="cls-5" x="26.62" y="0">T</tspan><tspan x="31.68" y="0">A G3</tspan></text><text class="cls-3" transform="translate(42.44 22.82)">BODEGA G4</text><text class="cls-3" transform="translate(25.94 402.9) rotate(-90.43)"><tspan class="cls-6">C</tspan><tspan x="7.01" y="0">ALLE 4</tspan></text><text class="cls-3" transform="matrix(0, -1, 1, 0, 458.1, 423.23)">BODEGAS G1</text></g></g></svg>