<svg xmlns="http://www.w3.org/2000/svg" viewBox="0 0 478 841.89"><defs><style>.cls-1{fill:#fff;}.cls-2{fill:none;stroke:#231f20;stroke-miterlimit:10;stroke-width:2px;}.cls-10,.cls-3{font-size:12px;fill:#231f20;font-family:MyriadPro-Regular, Myriad Pro;}.cls-4{letter-spacing:-0.05em;}.cls-5{letter-spacing:-0.08em;}.cls-6{letter-spacing:-0.08em;}.cls-7{letter-spacing:-0.01em;}.cls-10,.cls-8{letter-spacing:-0.01em;}.cls-9{letter-spacing:0em;}.cls-11{letter-spacing:-0.02em;}.cls-12{letter-spacing:0em;}.cls-13{letter-spacing:0.01em;}.cls-14{letter-spacing:-0.07em;}</style></defs><g id="Layer_2" data-name="Layer 2"><g id="Layer_1-2" data-name="Layer 1"><rect class="cls-1" width="478" height="841.89"/><polyline class="cls-2" points="32.4 231.36 32.4 34.6 431.6 34.6 431.6 162.92"/><polyline class="cls-2" points="32.4 284.11 32.4 807.36 431.6 807.36 431.6 713.26"/><line class="cls-2" x1="431.6" y1="654.8" x2="431.6" y2="214.25"/><text class="cls-3" transform="translate(19.73 445.38) rotate(-89.55)">BODEGAS G3<tspan class="cls-4" x="66.13" y="0"> </tspan><tspan x="68.12" y="0">Y G4</tspan></text><text class="cls-3" transform="matrix(0, -1, 1, 0, 457.7, 472.83)">BASCULA/<tspan class="cls-5" x="51.61" y="0">P</tspan><tspan class="cls-6" x="56.99" y="0">A</tspan><tspan x="63.41" y="0">TIO AL</tspan><tspan class="cls-7" x="96.06" y="0">M</tspan><tspan class="cls-8" x="105.59" y="0">A</tspan><tspan x="112.75" y="0">G</tspan><tspan class="cls-9" x="120.5" y="0">R</tspan><tspan x="127.02" y="0">AN</tspan></text><text class="cls-10" transform="translate(51.52 286.02) rotate(-90.11)">A<tspan class="cls-11" x="7.16" y="0">C</tspan><tspan class="cls-12" x="13.87" y="0">CESO G3</tspan></text><text class="cls-3" transform="translate(422.52 704.64) rotate(-90.1)">PUE<tspan class="cls-13" x="20.05" y="0">R</tspan><tspan class="cls-14" x="26.62" y="0">T</tspan><tspan x="31.68" y="0">A</tspan></text><text class="cls-3" transform="translate(422.52 207.52) rotate(-90.23)">PUE<tspan class="cls-13" x="20.05" y="0">R</tspan><tspan class="cls-14" x="26.62" y="0">T</tspan><tspan x="31.68" y="0">A</tspan></text><text class="cls-3" transform="translate(31.69 20.7)">BODEGA G2</text></g></g></svg>