<svg xmlns="http://www.w3.org/2000/svg" viewBox="0 0 478 841.89"><defs><style>.cls-1{fill:#fff;}.cls-2{fill:none;stroke:#231f20;stroke-miterlimit:10;stroke-width:2px;}.cls-3,.cls-5{font-size:12px;fill:#231f20;font-family:MyriadPro-Regular, Myriad Pro;}.cls-4{letter-spacing:-0.05em;}.cls-5{letter-spacing:-0.02em;}.cls-6{letter-spacing:-0.02em;}.cls-7{letter-spacing:0em;}.cls-8{letter-spacing:0.01em;}.cls-9{letter-spacing:-0.07em;}.cls-10{letter-spacing:-0.08em;}.cls-11{letter-spacing:-0.08em;}.cls-12{letter-spacing:-0.01em;}.cls-13{letter-spacing:-0.01em;}.cls-14{letter-spacing:0em;}</style></defs><g id="Layer_2" data-name="Layer 2"><g id="Layer_1-2" data-name="Layer 1"><rect class="cls-1" width="478" height="841.89"/><polyline class="cls-2" points="33.82 760.9 33.82 807.95 431.6 807.95 431.6 702.44"/><polyline class="cls-2" points="431.6 167.79 431.6 30.92 33.82 30.92 33.82 686.76"/><line class="cls-2" x1="431.6" y1="651.47" x2="431.6" y2="220.54"/><line class="cls-2" x1="33.82" y1="738.8" x2="33.78" y2="763.88"/><text class="cls-3" transform="translate(35.9 21.02)">BODEGA G1</text><text class="cls-3" transform="matrix(-0.01, -1, 1, -0.01, 21.21, 475.65)">BODEGAS G3<tspan class="cls-4" x="66.13" y="0"> </tspan><tspan x="68.12" y="0">Y G4</tspan></text><text class="cls-5" transform="translate(51.68 741.93) rotate(-91.05)">A<tspan class="cls-6" x="7.16" y="0">C</tspan><tspan class="cls-7" x="13.87" y="0">CESO G4</tspan></text><text class="cls-3" transform="matrix(0.02, -1, 1, 0.02, 426.52, 695.84)">PUE<tspan class="cls-8" x="20.05" y="0">R</tspan><tspan class="cls-9" x="26.62" y="0">T</tspan><tspan x="31.68" y="0">A</tspan></text><text class="cls-3" transform="matrix(0.02, -1, 1, 0.02, 426.52, 212.8)">PUE<tspan class="cls-8" x="20.05" y="0">R</tspan><tspan class="cls-9" x="26.62" y="0">T</tspan><tspan x="31.68" y="0">A</tspan></text><text class="cls-3" transform="translate(458.9 506.34) rotate(-88.9)">BASCULA/<tspan class="cls-10" x="51.61" y="0">P</tspan><tspan class="cls-11" x="56.99" y="0">A</tspan><tspan x="63.41" y="0">TIO AL</tspan><tspan class="cls-12" x="96.06" y="0">M</tspan><tspan class="cls-13" x="105.59" y="0">A</tspan><tspan x="112.75" y="0">G</tspan><tspan class="cls-14" x="120.5" y="0">R</tspan><tspan x="127.02" y="0">AN</tspan></text></g></g></svg>